<svg xmlns="http://www.w3.org/2000/svg" viewBox="0 0 381.83 95.29"><defs><style>.cls-1{fill:#d74239;}.cls-2{fill:#32528b;}.cls-3{fill:#33518b;}</style></defs><g id="Layer_2" data-name="Layer 2"><g id="Layer_1-2" data-name="Layer 1"><path class="cls-1" d="M110.6,33c.7-3.3,1.94-5.67,3.71-7.13s4.31-2.19,7.61-2.19h1.91l-.58,2.85a9.76,9.76,0,0,1,4.1-2.33,22.91,22.91,0,0,1,5.42-.52H139l-2.38,11.22c-.7,3.3-1.93,5.68-3.71,7.14s-4.31,2.19-7.61,2.19h-1.9l2.47-11.71c.19-1.26-.32-1.9-1.52-1.9a2.11,2.11,0,0,0-1.52.67,3.29,3.29,0,0,0-.86,1.23L114.5,67.61c-.7,3.3-1.93,5.68-3.71,7.14s-4.31,2.18-7.61,2.18h-1.9Z"/><path class="cls-1" d="M160.55,67.61q-1.05,5-3.71,7.14c-1.78,1.46-4.32,2.18-7.61,2.18h-17l9.32-44c.7-3.3,1.93-5.67,3.71-7.13s4.31-2.19,7.61-2.19h17l-4.19,19.88q-1,5-3.71,7.14c-1.77,1.46-4.31,2.18-7.61,2.18h-5.8l-3.33,15.42a1.19,1.19,0,0,0,.29,1.23,1.91,1.91,0,0,0,1.42.48,6,6,0,0,0,1.05-.24,1.75,1.75,0,0,0,1.14-1.47l.57-2.57q1.05-4.95,3.66-7.14T161,56.38h1.91Zm-6.66-21.69,2.85-13.32a1.67,1.67,0,0,0-.24-1.47,1.44,1.44,0,0,0-1.19-.53,2.85,2.85,0,0,0-1.52.48,2.14,2.14,0,0,0-.95,1.52L150,45.92Z"/><path class="cls-2" d="M210.87,19.66c.57-1.39,1.14-2.66,1.72-3.8a10.88,10.88,0,0,1,2.09-2.95,8.3,8.3,0,0,1,3-1.91,13,13,0,0,1,4.51-.66h9.71L219.72,67.61c-.7,3.3-1.93,5.68-3.71,7.14s-4.31,2.18-7.61,2.18h-4l8.85-41.76h-.47L200.6,67.61A37.31,37.31,0,0,1,199,71.42a10.5,10.5,0,0,1-2.14,2.94,8.85,8.85,0,0,1-3.09,1.91,13.17,13.17,0,0,1-4.47.66h-2.86l2-41.76h-.48L181.1,67.61q-1,5-3.72,7.14c-1.77,1.46-4.31,2.18-7.61,2.18h-4L178,19.66c.69-3.3,1.93-5.67,3.71-7.13s4.31-2.19,7.61-2.19h8l-1.33,46.8Z"/><path class="cls-2" d="M234.28,33c.69-3.3,1.93-5.67,3.71-7.13s4.31-2.19,7.61-2.19h17l-9.33,44c-.7,3.3-1.93,5.68-3.71,7.14s-4.31,2.18-7.61,2.18H225Zm3.8,35.11c-.19,1,0,1.5.52,1.66a4.86,4.86,0,0,0,1.1.24,4.76,4.76,0,0,0,1.14-.29A1.94,1.94,0,0,0,242,68.09L249.5,32.6a1.7,1.7,0,0,0-.24-1.47,1.46,1.46,0,0,0-1.19-.53,2.83,2.83,0,0,0-1.52.48,2.11,2.11,0,0,0-1,1.52Z"/><path class="cls-2" d="M266.14,23.66h4.48l.85-4c.7-3.3,1.92-5.67,3.67-7.13s4.29-2.19,7.65-2.19h1.91l-2.86,13.32h5.71l-1.43,6.94h-5.7L273.09,65c-.06.32-.11.59-.14.81a4.73,4.73,0,0,0-.05.81,4.19,4.19,0,0,0,.38,2,2.23,2.23,0,0,0,1,1,3.78,3.78,0,0,0,1.38.33c.51,0,1,0,1.43,0h4.47a9.32,9.32,0,0,1-3,5,7.63,7.63,0,0,1-5.09,1.9h-4.85a22.7,22.7,0,0,1-3.05-.19,6,6,0,0,1-2.47-.85,4.83,4.83,0,0,1-1.66-1.81,6.55,6.55,0,0,1-.62-3.14,9.18,9.18,0,0,1,.14-1.67c.1-.53.21-1.09.33-1.66l7.9-37h-4.47Z"/><path class="cls-2" d="M289.55,33c.7-3.3,1.93-5.67,3.71-7.13s4.31-2.19,7.61-2.19h17l-9.32,44q-1.05,5-3.71,7.14c-1.78,1.46-4.32,2.18-7.62,2.18h-17Zm3.8,35.11c-.19,1,0,1.5.53,1.66A4.82,4.82,0,0,0,295,70a4.76,4.76,0,0,0,1.14-.29,1.94,1.94,0,0,0,1.14-1.61l7.52-35.49a1.67,1.67,0,0,0-.24-1.47,1.44,1.44,0,0,0-1.19-.53,2.83,2.83,0,0,0-1.52.48,2.14,2.14,0,0,0-.95,1.52Z"/><path class="cls-2" d="M322.56,33c.7-3.3,1.93-5.67,3.71-7.13s4.31-2.19,7.61-2.19h1.9l-.57,2.85a9.73,9.73,0,0,1,4.09-2.33,23.06,23.06,0,0,1,5.43-.52h6.18l-2.38,11.22c-.7,3.3-1.93,5.68-3.71,7.14s-4.31,2.19-7.61,2.19h-1.9l2.47-11.71c.19-1.26-.32-1.9-1.52-1.9a2.11,2.11,0,0,0-1.52.67,3.29,3.29,0,0,0-.86,1.23l-7.42,35.11q-1.05,5-3.71,7.14c-1.78,1.46-4.32,2.18-7.61,2.18h-1.9Z"/><path class="cls-2" d="M380.12,31.93q-1,4.95-3.71,7.14t-7.61,2.19h-1.91l1.81-8.85c.13-.7,0-1.17-.38-1.43a2,2,0,0,0-1.05-.38,2.67,2.67,0,0,0-1.52.53,2.16,2.16,0,0,0-.95,1.28l-1.14,5.8a4.22,4.22,0,0,0,0,1.81,5.22,5.22,0,0,0,.57,1.43,4.63,4.63,0,0,0,.9,1.14c.35.32.68.6,1,.86l6.57,5.7A5.52,5.52,0,0,1,375,53.43a27.17,27.17,0,0,1-.53,4.67l-2,9.51q-1,5-3.71,7.14c-1.78,1.46-4.32,2.18-7.62,2.18h-17L346.06,68c.69-3.3,1.93-5.67,3.71-7.13s4.31-2.19,7.61-2.19h1.9l-2.09,9.61a1.21,1.21,0,0,0,.28,1.23,2,2,0,0,0,1.43.48,6,6,0,0,0,1.05-.24,1.75,1.75,0,0,0,1.14-1.47l1.71-7.9a7.37,7.37,0,0,0,.24-2,2.64,2.64,0,0,0-.38-1.28,4.93,4.93,0,0,0-.86-1c-.35-.32-.74-.67-1.19-1.05l-7.13-6.75a5.41,5.41,0,0,1-2-3.76A17,17,0,0,1,352,40.4L353.48,33c.7-3.3,1.93-5.67,3.71-7.13s4.31-2.19,7.61-2.19h17Z"/><path class="cls-3" d="M77.66,84.65a47.65,47.65,0,1,0-30,10.64H376.42a5.38,5.38,0,0,0,5.38-5.39V84.65ZM74.54,22.79a36.58,36.58,0,0,1,7.91,36.32L68.86,42.61ZM47.65,11A36.46,36.46,0,0,1,68.8,17.75l-19,7.49L33.11,14A36.34,36.34,0,0,1,47.65,11ZM43.92,29.52A17.61,17.61,0,1,1,30.26,50.34,17.6,17.6,0,0,1,43.92,29.52ZM11,47.65A36.61,36.61,0,0,1,26.12,18l1.21,20L11.14,50.71C11.05,49.7,11,48.68,11,47.65Zm1.54,10.48,20.05,5.2,7.32,20.14A36.79,36.79,0,0,1,12.54,58.13ZM47.65,84.29l-1,0L58.25,66.15l21.44-.75A36.65,36.65,0,0,1,47.65,84.29Z"/></g></g></svg>