<svg width="150" height="34" viewBox="0 0 150 34" fill="none" xmlns="http://www.w3.org/2000/svg">
<g clip-path="url(#clip0_711_2)">
<path fill-rule="evenodd" clip-rule="evenodd" d="M37.507 15.903L38 14.322L36.368 14.374C36.231 14.374 35.228 14.344 34.257 13.639C34.33 13.645 34.401 13.656 34.477 13.656C35.477 13.656 36.446 13.052 36.833 12.188L37.535 10.628C36.655 10.64 35.85 10.529 35.85 10.529C35.843 10.529 35.209 10.446 34.476 9.695C33.95 9.158 33.299 8.873 32.594 8.873C32.3149 8.87408 32.0376 8.91826 31.772 9.004C31.809 8.878 31.844 8.749 31.865 8.617C32.088 7.157 31.151 6.045 31.151 6.045L29.924 4.523L29.163 6.311C29.16 6.317 28.968 6.737 28.625 6.941C28.521 6.415 28.266 5.824 27.722 5.259C26.695 4.195 25.446 4.035 24.792 4.035C24.489 4.035 24.272 4.069 24.22 4.077L22.739 4.369C22.824 4.038 23.007 3.459 23.339 2.94L24.157 1.665L22.1 1.9L21.445 0.506L20.176 1.161L19.003 0L17.833 1.16L16.562 0.506L15.908 1.899L13.852 1.664L14.671 2.941C15.004 3.46 15.185 4.036 15.27 4.367L13.857 4.087L13.808 4.08C13.6129 4.04926 13.4156 4.03421 13.218 4.035C12.564 4.035 11.315 4.195 10.291 5.259C9.746 5.823 9.49 6.415 9.386 6.941C9.045 6.738 8.854 6.326 8.854 6.326L8.092 4.526L6.845 6.06C6.693 6.257 5.942 7.303 6.145 8.62C6.167 8.751 6.201 8.879 6.238 9.005C5.97314 8.91898 5.69648 8.87478 5.418 8.874C4.712 8.874 4.061 9.159 3.534 9.696C2.804 10.444 2.173 10.529 2.178 10.529C2.178 10.529 1.511 10.649 0.478 10.629L1.177 12.189C1.565 13.053 2.535 13.657 3.533 13.657C3.609 13.657 3.68 13.646 3.754 13.64C2.784 14.346 1.782 14.375 1.661 14.375L0 14.322L0.503 15.902C0.757 16.718 1.603 18.067 3.223 18.212C3.047 18.952 2.656 19.782 1.798 20.14L0.56 20.65L1.235 21.828C1.616 22.463 2.511 23.206 3.784 23.206C4.059 23.206 4.325 23.177 4.582 23.123C4.647 23.413 4.729 23.703 4.826 23.993C5.204 25.123 4.878 25.911 4.874 25.92L4.264 27.202L5.627 27.562C5.644 27.568 6.057 27.682 6.572 27.682C6.95801 27.6843 7.34056 27.6092 7.697 27.461C7.874 27.778 8.088 28.068 8.338 28.327C9.212 29.226 10.452 29.681 12.02 29.681H12.025L13.145 29.666L10.831 30.63L12.588 31.481C13.227 31.793 13.983 32.161 14.755 32.443L14.535 33.044L15.14 33.321C15.194 33.346 16.36 33.867 18.295 33.978C18.295 33.978 18.762 34 19.019 34C19.277 34 19.739 33.977 19.739 33.977C21.661 33.863 22.817 33.346 22.871 33.321L23.478 33.044L23.257 32.442C24.049 32.152 24.834 31.768 25.447 31.469L27.171 30.629L24.864 29.666L25.989 29.681C27.559 29.681 28.799 29.225 29.672 28.326C29.921 28.068 30.134 27.779 30.312 27.461C30.6689 27.6086 31.0518 27.6834 31.438 27.681C31.945 27.681 32.362 27.569 32.373 27.565L33.743 27.202L33.146 25.943C33.132 25.911 32.806 25.123 33.184 23.991C33.281 23.703 33.362 23.412 33.428 23.123C33.685 23.177 33.954 23.205 34.231 23.206C35.853 23.206 36.631 22.063 36.781 21.815L37.45 20.649L36.212 20.14C35.352 19.783 34.962 18.953 34.788 18.214C36.387 18.074 37.244 16.724 37.508 15.904L37.507 15.903Z" fill="#FFFFFE"/>
<path fill-rule="evenodd" clip-rule="evenodd" d="M19.003 4.84298C17.693 4.84398 16.71 5.27398 16.496 5.78098L19.003 6.77098L21.511 5.78098C21.299 5.27398 20.316 4.84398 19.003 4.84298ZM19.03 31.082H18.98C18.186 31.087 17.091 30.924 16.565 30.769L15.931 32.488C16.349 32.637 17.765 32.923 19.006 32.923C20.245 32.923 21.662 32.637 22.079 32.488L21.446 30.77C20.917 30.924 19.824 31.087 19.03 31.082ZM23.827 29.372C23.355 29.64 22.302 30.042 21.689 30.228L22.203 31.648C23.0227 31.4312 23.819 31.1337 24.58 30.76L23.512 30.405L23.827 29.372V29.372ZM14.182 29.372L14.498 30.405L13.429 30.76C14.074 31.085 14.86 31.388 15.805 31.647L16.32 30.227C15.708 30.041 14.653 29.64 14.182 29.372V29.372ZM19.003 3.19998C19.992 3.19998 20.96 3.43698 21.706 3.85198C21.774 3.62398 21.869 3.34598 21.998 3.05498L21.716 3.08898L21.421 3.11898L21.296 2.84998L20.918 2.05298L20.232 2.41098L19.964 2.54698L19.75 2.33698L19.003 1.59698L18.258 2.33698L18.045 2.54698L17.778 2.41098L17.088 2.05298L16.715 2.84998L16.588 3.11998L16.292 3.08898L16.012 3.05498C16.1256 3.31441 16.2231 3.58058 16.304 3.85198C17.052 3.43698 18.02 3.19998 19.004 3.19998H19.003ZM34.088 12.417C34.217 12.461 34.347 12.481 34.476 12.481C35.036 12.481 35.576 12.118 35.761 11.704C35.761 11.704 34.736 11.642 33.634 10.521C33.284 10.159 32.912 10.05 32.594 10.05C32.099 10.05 31.727 10.311 31.727 10.311C33.059 11.021 33.33 12.161 34.088 12.417V12.417ZM3.53302 12.48C3.66302 12.48 3.79302 12.461 3.91802 12.416C4.67802 12.16 4.95202 11.021 6.28102 10.312C6.28102 10.312 5.90902 10.05 5.41702 10.05C5.09702 10.05 4.72602 10.158 4.37402 10.522C3.27302 11.642 2.24902 11.705 2.24902 11.705C2.43302 12.118 2.97402 12.481 3.53302 12.481V12.48Z" fill="#FFFFFE"/>
<path fill-rule="evenodd" clip-rule="evenodd" d="M33.687 20.595C32.657 20.085 32.007 18.735 31.849 18.249C31.679 20.927 30.374 22.785 28.849 24.573C28.057 25.501 27.781 26.403 27.781 26.403C27.781 26.403 27.934 25.381 28.618 24.549C30.041 22.837 31.393 20.705 31.494 18.239C31.563 16.519 31.122 15.124 30.432 13.974C30.818 15.171 30.763 16.638 29.454 18.007C29.454 18.007 32.061 14.879 28.417 11.671C26.959 10.451 25.363 9.697 24.542 9.163C27.509 10.133 28.959 9.065 28.959 9.065C28.011 9.888 26.784 9.874 26.023 9.755C26.23 9.856 26.445 9.962 26.675 10.085C29.178 11.447 31.426 13.688 31.81 16.79V16.766C32.391 19.813 33.687 20.595 33.687 20.595ZM34.449 17.045C34.471 17.0467 34.493 17.0473 34.515 17.047C35.91 17.047 36.382 15.55 36.382 15.55H36.355C36.099 15.55 34.025 15.49 32.559 13.623C31.595 12.396 30.804 11.317 29.242 10.893L29.088 10.865L29.055 10.708C29.012 10.469 29.175 10.245 29.547 10.004C31.702 8.59 30.237 6.786 30.237 6.786C30.237 6.786 29.623 8.228 28.246 8.228L28.143 8.226C27.987 8.218 27.836 8.213 27.684 8.18L27.43 8.13C27.43 8.13 27.823 7.06 26.875 6.079C26.162 5.337 25.293 5.211 24.792 5.211C24.539 5.211 24.379 5.244 24.379 5.244C24.855 5.867 25.199 6.902 24.649 7.54C24.174 8.088 23.014 8.115 23.014 8.933C23.014 9.279 23.337 9.683 23.917 10.046C25.661 11.146 27.392 12.606 28.112 14.563C29.012 17.003 27.998 18.623 26.552 19.552C26.552 19.552 27.006 19.97 27.663 20.024C27.797 20.037 27.928 20.043 28.05 20.043C29.439 20.043 30.157 19.39 30.157 19.39C30.157 19.39 30.038 20.292 29.317 21.129C28.649 21.901 27.774 22.357 26.439 22.376C26.439 22.376 26.397 22.996 26.988 23.534C27.367 23.873 28.24 23.984 28.24 23.984C28.24 23.984 26.604 24.315 26.423 26.736C26.325 28.048 25.991 28.503 25.991 28.503H26.02C29.816 28.503 29.719 25.241 29.719 25.241C29.719 25.241 29.983 26.207 31.042 26.459C31.17 26.493 31.307 26.506 31.437 26.506C31.777 26.506 32.074 26.426 32.074 26.426C32.074 26.426 31.519 25.254 32.069 23.615C32.526 22.254 32.452 21.246 32.452 21.246C32.452 21.246 32.963 22.021 34.232 22.028H34.245C34.5448 22.0326 34.8408 21.9616 35.1058 21.8214C35.3708 21.6812 35.5962 21.4764 35.761 21.226C33.23 20.173 33.48 16.776 33.48 16.776C33.48 16.776 33.808 17.022 34.449 17.046V17.045ZM9.16 24.573C7.635 22.785 6.33 20.927 6.158 18.249C6.001 18.736 5.352 20.086 4.323 20.595C4.323 20.595 5.617 19.813 6.198 16.766V16.79C6.583 13.688 8.831 11.447 11.334 10.086C11.564 9.961 11.78 9.856 11.985 9.756C11.225 9.874 9.997 9.888 9.05 9.066C9.05 9.066 10.5 10.133 13.466 9.163C12.646 9.697 11.05 10.451 9.593 11.671C5.948 14.879 8.555 18.007 8.555 18.007C7.245 16.637 7.191 15.172 7.577 13.974C6.887 15.124 6.445 16.519 6.517 18.24C6.616 20.705 7.967 22.837 9.387 24.55C10.075 25.38 10.23 26.402 10.23 26.402C10.23 26.402 9.95 25.501 9.16 24.573ZM9.77 23.983C9.77 23.983 10.643 23.873 11.022 23.533C11.612 22.996 11.571 22.376 11.571 22.376C10.235 22.357 9.361 21.901 8.69 21.129C7.972 20.292 7.852 19.39 7.852 19.39C7.852 19.39 8.57 20.043 9.957 20.043C10.082 20.043 10.212 20.037 10.345 20.024C10.7554 19.9824 11.1437 19.8179 11.459 19.552C10.011 18.623 8.997 17.003 9.896 14.562C10.616 12.607 12.346 11.146 14.092 10.045C14.671 9.683 14.993 9.279 14.993 8.933C14.993 8.115 13.835 8.088 13.36 7.54C12.81 6.902 13.155 5.867 13.63 5.244C13.63 5.244 13.471 5.211 13.217 5.211C12.717 5.211 11.848 5.337 11.134 6.079C10.184 7.061 10.579 8.131 10.579 8.131L10.325 8.181C10.174 8.212 10.021 8.218 9.865 8.227L9.765 8.228C8.385 8.228 7.772 6.787 7.772 6.787C7.772 6.787 6.309 8.59 8.464 10.004C8.834 10.245 8.997 10.47 8.954 10.708L8.921 10.864L8.764 10.892C7.205 11.317 6.414 12.396 5.448 13.623C3.982 15.49 1.91 15.55 1.653 15.55H1.625C1.625 15.55 2.098 17.047 3.494 17.047C3.516 17.047 3.536 17.047 3.56 17.045C4.201 17.022 4.53 16.776 4.53 16.776C4.53 16.776 4.778 20.173 2.248 21.226C2.248 21.226 2.709 22.029 3.765 22.029H3.777C5.047 22.021 5.557 21.246 5.557 21.246C5.557 21.246 5.483 22.255 5.938 23.615C6.488 25.255 5.936 26.425 5.936 26.425C5.936 26.425 6.231 26.505 6.572 26.505C6.704 26.505 6.839 26.493 6.966 26.459C8.024 26.207 8.289 25.241 8.289 25.241C8.289 25.241 8.192 28.503 11.989 28.503H12.017C12.017 28.503 11.684 28.048 11.587 26.736C11.407 24.316 9.769 23.983 9.769 23.983H9.77ZM18.147 11.963H19.937V12.578C19.727 12.32 19.317 12.373 19.317 12.373V13.26C19.317 13.26 19.331 13.696 19.485 13.885H18.599C18.754 13.696 18.767 13.26 18.767 13.26V12.373C18.767 12.373 18.359 12.32 18.147 12.578V11.963V11.963ZM16.197 12.055C16.259 12.122 16.32 12.195 16.379 12.268C16.393 12.285 16.406 12.3 16.42 12.32C16.475 12.392 16.53 12.47 16.583 12.548L16.619 12.601C16.682 12.697 16.742 12.796 16.802 12.899C17.35 13.846 18.226 14.412 19.003 14.413C19.782 14.412 20.657 13.846 21.206 12.899C21.2649 12.7961 21.3269 12.6951 21.392 12.596C21.465 12.4841 21.5431 12.3757 21.626 12.271C21.687 12.195 21.75 12.121 21.814 12.053C21.825 12.043 21.834 12.032 21.845 12.023C22.125 11.737 22.456 11.519 22.892 11.398L22.698 11.285H22.688L21.916 10.837L21.125 10.382L19.009 11.536L19.003 11.531L19 11.536L16.884 10.382L16.092 10.837L15.32 11.285H15.311L15.116 11.398C15.551 11.518 15.883 11.734 16.163 12.021C16.175 12.031 16.183 12.045 16.197 12.055V12.055Z" fill="#FFFFFE"/>
<path fill-rule="evenodd" clip-rule="evenodd" d="M18.3302 8.05302V8.63302L18.2192 8.58102C18.2142 8.57702 18.0502 8.54101 17.7672 8.31501C17.2982 7.95101 17.2892 7.61501 17.2892 7.61501L18.3292 8.05302H18.3302ZM18.8202 10.77V7.16802L16.5322 6.39001L17.1362 9.88001L18.8212 10.77H18.8202ZM19.6802 8.05302L20.7202 7.61501C20.7202 7.61501 20.7122 7.95101 20.2412 8.31501C19.9582 8.54001 19.7952 8.57702 19.7902 8.58102L19.6802 8.63201V8.05302ZM20.8732 9.88101L21.4742 6.39101L19.1872 7.16802V10.77L20.8732 9.88001V9.88101ZM15.5842 19.12C15.8072 19.2 16.0772 19.217 16.2162 19.217C16.2212 19.2 16.2292 19.179 16.2362 19.153C16.2472 19.113 16.2592 19.071 16.2682 19.027C16.3072 18.827 16.3202 18.602 16.3242 18.456C16.1963 18.38 16.0921 18.2699 16.0232 18.138C15.9382 17.959 15.8172 17.875 15.6402 17.875C15.4102 17.875 15.1632 18.015 15.0562 18.079C14.9722 18.577 15.3392 19.029 15.5842 19.119V19.12ZM20.6462 17.209C20.2222 17.672 19.3892 18.479 19.3492 18.519L19.2992 18.569L16.6692 18.528C16.667 18.7456 16.6388 18.9621 16.5852 19.173L16.5642 19.256L19.6912 19.82C20.0162 19.592 20.9112 18.937 21.2592 18.68C21.0062 18.31 20.9822 17.871 21.0392 17.563C20.8891 17.4682 20.7562 17.3485 20.6462 17.209V17.209Z" fill="#FFFFFE"/>
<path fill-rule="evenodd" clip-rule="evenodd" d="M21.0034 14.041C20.3974 14.643 19.8164 14.866 19.2974 14.918C19.2024 14.9283 19.1069 14.9336 19.0114 14.934H18.9984C18.8074 14.934 18.6171 14.9138 18.4304 14.874C18.3964 15.009 18.3534 15.292 18.4764 15.56C18.5864 15.803 18.8094 15.984 19.1354 16.105L19.2454 16.148L19.2464 16.266C19.2464 16.301 19.2724 17.067 20.1064 17.28C20.2424 17.14 20.3664 17.013 20.4564 16.906C20.2864 16.505 20.3764 16.095 20.6234 15.894C20.6134 15.937 20.5034 16.942 21.3084 17.316L21.4414 17.379L21.4014 17.52C21.3884 17.563 21.1204 18.536 22.0954 18.898L22.2674 18.964L22.1904 19.131C22.1734 19.168 21.7914 20.051 22.6914 20.553H24.6424V19C23.9484 18.915 23.6554 18.356 23.5794 17.96C23.2564 17.905 23.0074 17.766 22.8364 17.539C22.4264 16.999 22.7784 16.504 22.7834 16.477C22.7824 16.481 22.7834 17.007 23.1074 17.333C23.2684 17.489 23.4584 17.611 23.7474 17.638L23.8884 17.651L23.9004 17.796C23.9034 17.827 23.9804 18.54 24.6424 18.652L24.6414 15.482C24.6414 14.99 24.7844 14.496 24.9564 14.04H21.0034V14.041ZM15.7504 15.494L15.6984 17.512L15.9284 17.548L16.4884 15.611L16.2034 15.015L15.7514 15.494H15.7504ZM16.9644 22.968C16.949 22.9675 16.9339 22.9639 16.9199 22.9573C16.906 22.9508 16.8935 22.9415 16.8833 22.93C16.8731 22.9185 16.8654 22.905 16.8606 22.8904C16.8558 22.8758 16.854 22.8603 16.8554 22.845C16.8562 22.8298 16.8601 22.815 16.8668 22.8014C16.8735 22.7877 16.8829 22.7756 16.8943 22.7656C16.9058 22.7556 16.9191 22.7481 16.9336 22.7433C16.948 22.7386 16.9632 22.7368 16.9784 22.738C17.0444 22.741 17.0904 22.798 17.0884 22.86C17.0861 22.8907 17.0717 22.9192 17.0485 22.9394C17.0253 22.9597 16.9951 22.9699 16.9644 22.968ZM21.9264 24.755C21.9434 24.755 21.9634 24.757 21.9814 24.762C22.3314 24.862 22.4184 26.12 23.0294 26.232C23.0894 26.245 23.1454 26.248 23.1934 26.248C23.3704 26.248 23.4754 26.173 23.5894 26.038C23.5894 26.038 23.2814 25.555 23.0514 25.228C22.7464 24.8 22.5094 24.283 21.9404 24.283C21.9264 24.283 21.9104 24.283 21.8954 24.285C21.787 24.2893 21.6822 24.3247 21.5934 24.387C21.4034 24.2613 21.1811 24.1936 20.9534 24.192C20.5984 24.192 20.3204 24.356 20.1814 24.356H20.1764L18.9064 24.23C18.7074 24.21 18.5504 24.01 18.4934 23.932L18.4714 23.898C18.4714 23.863 18.4714 23.828 18.4694 23.797C18.4264 22.756 17.6224 22.311 17.3354 22.303C17.3354 22.303 17.3694 22.105 17.2924 22.03L17.0124 22.37L16.0924 21.908L16.7484 22.676L16.1934 23.301C16.1234 23.372 16.1324 23.468 16.1614 23.509L16.4014 23.721L16.7054 23.536C16.7204 23.525 16.7484 23.521 16.7824 23.521C16.8664 23.521 16.9924 23.543 17.1054 23.543C17.2304 23.543 17.3374 23.517 17.3504 23.4C17.3124 23.786 16.9544 24.457 17.1894 24.984L17.3634 25.382L16.2404 25.22L15.7144 26.109C15.5524 26.405 15.5264 26.725 15.6824 26.899L15.8794 27.146C15.8794 27.146 16.1554 26.853 16.2164 26.66L16.1274 26.562C16.0524 26.479 16.0564 26.405 16.1024 26.316L16.4324 25.768L17.7574 26.081L17.8274 25.961C17.9174 25.811 18.0474 25.767 18.1894 25.767C18.2484 25.767 18.3084 25.774 18.3704 25.784C18.6164 25.833 19.0214 25.898 19.4264 25.898C19.8714 25.898 20.3124 25.818 20.5474 25.555C21.0274 26.268 22.0014 26.381 21.9244 26.744L21.6684 27.966C21.8384 27.958 22.0014 27.947 22.1564 27.926L22.4004 26.655C22.4201 26.5471 22.4375 26.4387 22.4524 26.33C22.3584 26.234 22.1314 26.033 22.0024 25.788C21.8314 25.457 21.9244 25.284 21.7644 24.854C21.7644 24.854 21.8144 24.754 21.9264 24.754V24.755Z" fill="#FFFFFE"/>
<path fill-rule="evenodd" clip-rule="evenodd" d="M15.1525 25.91C15.1525 25.91 15.5925 25.73 15.6325 25.6L15.5725 25.454C15.5315 25.358 15.5365 25.254 15.6175 25.198L16.0915 24.869L16.8845 25.022C16.8845 25.022 16.7405 24.842 16.7545 24.602L15.9985 24.442L15.2845 24.877C15.16 24.9694 15.0699 25.1008 15.0288 25.2504C14.9876 25.3999 14.9978 25.5589 15.0575 25.702L15.1525 25.911V25.91ZM20.7595 27.982C20.9005 27.976 21.0585 27.974 21.2295 27.974C21.2295 27.974 21.6375 26.779 21.6605 26.741C21.3575 26.5997 21.0618 26.4431 20.7745 26.272C20.8955 26.454 21.1895 26.661 21.1315 26.821L20.7595 27.982Z" fill="#FFFFFE"/>
<path fill-rule="evenodd" clip-rule="evenodd" d="M24.6417 20.895H13.3667V25.144C13.3667 26.882 14.6217 27.969 16.4747 27.969C18.0217 27.969 18.4297 28.029 19.0047 28.602C19.4017 28.205 19.7297 28.058 20.4047 28.002L20.4197 27.937L20.7747 26.836C20.7547 26.811 20.1747 26.15 20.1747 26.15C19.9447 26.227 19.7507 26.24 19.4247 26.24C19.0917 26.24 18.7147 26.2 18.3057 26.124C18.2674 26.1149 18.2281 26.1102 18.1887 26.11C18.1387 26.11 18.1357 26.114 18.1217 26.139L18.0517 26.256L17.9217 26.47L17.6787 26.413L16.5967 26.158L16.4477 26.403L16.4707 26.43L16.6017 26.575L16.5437 26.765C16.4637 27.012 16.2057 27.301 16.1267 27.381L15.8567 27.671L15.6097 27.36L15.4247 27.127C15.2297 26.909 15.1847 26.575 15.2947 26.225C15.2915 26.2274 15.2877 26.2288 15.2837 26.229L14.9787 26.356L14.8417 26.056L14.7447 25.845C14.6516 25.6291 14.6348 25.388 14.6972 25.1613C14.7595 24.9346 14.8973 24.7359 15.0877 24.598L15.9577 24.105L16.7877 24.268C16.8077 24.188 16.8377 23.904 16.8607 23.831C16.8447 23.829 16.8297 23.826 16.8137 23.826L16.3357 24.004L15.8757 23.686C15.8757 23.686 15.6957 23.512 15.8587 23.338L16.3037 22.661L15.1737 21.241L16.9107 21.955L17.0267 21.812L17.2607 21.53L17.5267 21.784C17.5967 21.8524 17.6453 21.9396 17.6667 22.035C18.1447 22.222 19.0027 22.773 19.0787 23.669L18.8107 23.776V23.783C18.8717 23.856 18.9227 23.886 18.9387 23.889L20.1787 24.011C20.2107 24.005 20.2487 23.991 20.2927 23.979C20.4477 23.926 20.6787 23.849 20.9527 23.849C21.1767 23.849 21.3927 23.901 21.5997 23.999C21.6895 23.9654 21.784 23.9459 21.8797 23.941L21.9397 23.939C22.6027 23.939 22.9327 24.436 23.1977 24.833C23.2417 24.902 23.2857 24.966 23.3317 25.03C23.5637 25.358 23.8667 25.837 23.8787 25.858L24.0157 26.071L23.8477 26.267C23.7197 26.417 23.5247 26.592 23.1927 26.592C23.1175 26.5914 23.0425 26.5837 22.9687 26.569C22.9007 26.556 22.8343 26.5355 22.7707 26.508C22.7605 26.5786 22.7489 26.6489 22.7357 26.719L22.5187 27.856C23.8187 27.536 24.6447 26.552 24.6447 25.144L24.6417 20.895V20.895ZM13.3667 20.553H22.1367C21.6987 20.099 21.7057 19.526 21.8167 19.153C21.6984 19.0962 21.5884 19.0235 21.4897 18.937C21.1467 19.19 20.1007 19.953 19.8277 20.145L19.7687 20.185L16.3267 19.561H16.2567C16.1747 19.561 16.0537 19.558 15.9217 19.541C15.9076 19.6042 15.8754 19.662 15.8292 19.7073C15.7829 19.7526 15.7245 19.7835 15.661 19.7963C15.5975 19.8091 15.5317 19.8033 15.4715 19.7794C15.4112 19.7556 15.3592 19.7148 15.3217 19.662C15.2954 19.626 15.2765 19.585 15.2662 19.5416C15.2559 19.4981 15.2543 19.4531 15.2617 19.409L15.2747 19.334C14.9207 19.084 14.5917 18.524 14.7377 17.934L14.7517 17.872L14.8017 17.836C14.8522 17.8016 14.9042 17.7695 14.9577 17.74L14.7077 17.7C14.6633 17.6924 14.6236 17.6678 14.5971 17.6313C14.5706 17.5949 14.5593 17.5496 14.5657 17.505C14.569 17.4827 14.5767 17.4612 14.5884 17.4419C14.6 17.4225 14.6155 17.4057 14.6337 17.3924C14.652 17.3791 14.6727 17.3695 14.6947 17.3643C14.7166 17.3591 14.7394 17.3583 14.7617 17.362L15.3567 17.456L15.4117 15.355L16.2977 14.415L16.8517 15.582L16.2677 17.604L16.7937 17.687C16.8386 17.6944 16.8788 17.7192 16.9054 17.7562C16.932 17.7931 16.9429 17.8391 16.9357 17.884C16.9293 17.9238 16.9088 17.96 16.878 17.9861C16.8472 18.0121 16.8081 18.0263 16.7677 18.026L16.7407 18.025L16.3117 17.955C16.3177 17.969 16.3257 17.976 16.3317 17.99C16.3795 18.0728 16.4513 18.1391 16.5377 18.18L19.1607 18.223C19.2717 18.114 19.5467 17.844 19.8307 17.558C19.5835 17.4673 19.3665 17.3095 19.204 17.1023C19.0415 16.8951 18.9399 16.6467 18.9107 16.385C18.5507 16.231 18.3007 16.001 18.1627 15.701C17.9947 15.329 18.0547 14.957 18.0997 14.776C17.7497 14.649 17.3817 14.415 17.0057 14.041H13.0537C13.2237 14.497 13.3667 14.991 13.3667 15.482V20.552V20.553Z" fill="#FFE52B"/>
<path fill-rule="evenodd" clip-rule="evenodd" d="M16.9782 22.738C16.963 22.7368 16.9477 22.7386 16.9332 22.7435C16.9187 22.7483 16.9053 22.7559 16.8938 22.766C16.8824 22.7761 16.873 22.7883 16.8664 22.8021C16.8597 22.8158 16.8559 22.8308 16.8552 22.846C16.854 22.8613 16.8558 22.8766 16.8607 22.8911C16.8656 22.9056 16.8734 22.919 16.8835 22.9304C16.8937 22.9418 16.9061 22.951 16.92 22.9575C16.9339 22.9639 16.9489 22.9675 16.9642 22.968C16.9947 22.97 17.0248 22.9598 17.048 22.9398C17.0712 22.9198 17.0856 22.8915 17.0882 22.861C17.0898 22.8301 17.0792 22.7999 17.0586 22.7768C17.0379 22.7538 17.009 22.7398 16.9782 22.738V22.738ZM22.2042 31.648L21.6892 30.228C22.3022 30.041 23.3552 29.639 23.8282 29.372L23.5132 30.405L24.5802 30.76C23.9342 31.084 23.1522 31.387 22.2042 31.647V31.648ZM19.0062 32.923C17.7652 32.923 16.3492 32.637 15.9312 32.488L16.5652 30.77C17.0912 30.924 18.1852 31.087 18.9802 31.082H19.0302C19.8242 31.087 20.9172 30.923 21.4462 30.77L22.0792 32.488C21.6612 32.638 20.2452 32.923 19.0062 32.923ZM13.4302 30.76L14.4982 30.405L14.1822 29.372C14.6532 29.639 15.7092 30.042 16.3202 30.228L15.8052 31.648C14.8602 31.388 14.0752 31.084 13.4302 30.76ZM24.6282 30.445L23.9782 30.195L24.1582 29.523L24.3552 28.79C24.3552 28.79 23.2052 29.416 21.5822 29.885C21.1222 30.017 20.7742 30.078 20.7742 30.078V30.577C20.7742 30.577 19.9062 30.727 19.0302 30.727H18.9802C18.1022 30.727 17.2362 30.577 17.2362 30.577V30.077C17.2362 30.077 16.8872 30.017 16.4272 29.885C14.8062 29.415 13.6562 28.79 13.6562 28.79L13.8502 29.523L14.0342 30.195L13.3822 30.445L12.6592 30.715C13.4872 31.116 14.6352 31.699 15.6852 31.987L15.4382 32.665C15.4382 32.665 16.7702 33.273 18.9892 33.279V33.28H19.0192V33.279C21.2412 33.273 22.5732 32.665 22.5732 32.665L22.3232 31.987C23.3742 31.699 24.5242 31.117 25.3482 30.715L24.6282 30.445V30.445ZM16.2932 3.08802L16.5882 3.12002L16.7152 2.85002L17.0872 2.05302L17.7772 2.41102L18.0452 2.54802L19.0032 1.59602L19.7502 2.33602L19.9642 2.54802L20.2322 2.41102L20.9182 2.05302L21.2962 2.85002L21.4212 3.12002L21.7162 3.08802L21.9982 3.05502C21.884 3.31465 21.7861 3.58117 21.7052 3.85302C20.9602 3.43602 19.9922 3.20002 19.0042 3.20002C18.0202 3.20002 17.0522 3.43602 16.3042 3.85302C16.2235 3.58122 16.126 3.31471 16.0122 3.05502L16.2922 3.08802H16.2932ZM19.0032 3.61502C20.3262 3.61502 21.3832 4.05502 21.9682 4.52202C21.9682 4.52202 22.1422 3.47502 22.7342 2.55202L21.6692 2.67202L21.1122 1.48702L20.0422 2.04002L19.0032 1.01202L17.9682 2.04002L16.8962 1.48702L16.3402 2.67302L15.2752 2.55102C15.8682 3.47502 16.0412 4.52102 16.0412 4.52102C16.6292 4.05402 17.6832 3.61502 19.0032 3.61502V3.61502ZM35.7612 21.226C35.7612 21.226 35.3012 22.029 34.2452 22.029H34.2322C32.9642 22.021 32.4522 21.246 32.4522 21.246C32.4522 21.246 32.5262 22.254 32.0702 23.615C31.5202 25.255 32.0742 26.425 32.0742 26.425C32.0742 26.425 31.7782 26.506 31.4372 26.506C31.3072 26.506 31.1712 26.493 31.0422 26.459C29.9832 26.208 29.7192 25.242 29.7192 25.242C29.7192 25.242 29.8172 28.503 26.0202 28.503H25.9902C25.9902 28.503 26.3252 28.048 26.4242 26.736C26.6042 24.316 28.2402 23.983 28.2402 23.983C28.2402 23.983 27.3672 23.873 26.9882 23.534C26.3972 22.997 26.4382 22.376 26.4382 22.376C27.7742 22.357 28.6502 21.902 29.3172 21.129C29.747 20.6345 30.037 20.0341 30.1572 19.39C30.1572 19.39 29.4392 20.043 28.0502 20.043C27.9282 20.043 27.7982 20.037 27.6642 20.024C27.0062 19.971 26.5522 19.552 26.5522 19.552C27.9982 18.623 29.0122 17.002 28.1132 14.562C27.3932 12.607 25.6612 11.146 23.9182 10.046C23.3382 9.68302 23.0142 9.27902 23.0142 8.93202C23.0142 8.11502 24.1742 8.08902 24.6502 7.54002C25.2002 6.90202 24.8552 5.86702 24.3792 5.24402C24.3792 5.24402 24.5392 5.21102 24.7922 5.21102C25.2942 5.21102 26.1622 5.33702 26.8762 6.07902C27.8232 7.06102 27.4302 8.13102 27.4302 8.13102L27.6842 8.18102C27.8362 8.21202 27.9872 8.21902 28.1442 8.22702L28.2462 8.22802C29.6232 8.22802 30.2382 6.78602 30.2382 6.78602C30.2382 6.78602 31.7022 8.59002 29.5472 10.004C29.1762 10.245 29.0122 10.47 29.0552 10.708L29.0892 10.865L29.2422 10.892C30.8042 11.317 31.5952 12.397 32.5602 13.623C34.0262 15.49 36.1002 15.55 36.3552 15.55H36.3832C36.3832 15.55 35.9102 17.047 34.5152 17.047C34.4922 17.047 34.4722 17.047 34.4492 17.045C33.8092 17.022 33.4792 16.776 33.4792 16.776C33.4792 16.776 33.2302 20.173 35.7612 21.226V21.226ZM34.5152 17.505C36.2252 17.505 36.7972 15.762 36.8212 15.688L37.0112 15.073L36.3712 15.093H36.3692C36.1422 15.093 34.2562 15.043 32.9192 13.34L32.7922 13.182C31.9182 12.069 31.0892 11.01 29.6072 10.527C29.6664 10.4752 29.7296 10.428 29.7962 10.386C30.5822 9.86802 31.0402 9.23902 31.1542 8.50802C31.3232 7.40902 30.6222 6.53302 30.5922 6.49702L30.1162 5.90702L29.8182 6.60702C29.7982 6.65002 29.2982 7.77002 28.2462 7.77002H28.1682C28.0984 7.76763 28.0287 7.76363 27.9592 7.75802C27.9962 7.25802 27.9052 6.48602 27.2052 5.76002C26.3642 4.88702 25.3322 4.75602 24.7922 4.75602C24.5042 4.75602 24.3122 4.79202 24.2912 4.79402L23.5722 4.93702L24.0152 5.52202C24.3632 5.97402 24.6792 6.80702 24.3052 7.24202C24.1852 7.38202 23.9392 7.49302 23.7042 7.60602C23.2202 7.82902 22.5582 8.14102 22.5582 8.93202C22.5582 9.44402 22.9552 9.98102 23.6752 10.436C25.8032 11.777 27.1172 13.177 27.6842 14.722C28.5622 17.098 27.4172 18.454 26.3042 19.168L25.8062 19.489L26.2432 19.891C26.3022 19.943 26.8352 20.414 27.6242 20.482C27.7742 20.492 27.9172 20.5 28.0512 20.5C28.5562 20.5 28.9872 20.42 29.3372 20.314C29.2326 20.4966 29.1107 20.6687 28.9732 20.828C28.3382 21.566 27.5562 21.902 26.4312 21.92L26.0132 21.926L25.9812 22.346C25.9772 22.431 25.9462 23.21 26.6812 23.872C26.7942 23.974 26.9302 24.059 27.0732 24.127C26.5732 24.577 26.0672 25.361 25.9692 26.703C25.8862 27.823 25.6192 28.238 25.6162 28.243L25.1542 28.949L25.9892 28.96C27.3682 28.96 28.4242 28.58 29.1552 27.824C29.5338 27.4269 29.8164 26.9483 29.9812 26.425C30.3873 26.7713 30.9035 26.9613 31.4372 26.961C31.8272 26.961 32.1532 26.878 32.1892 26.87L32.7222 26.728L32.4872 26.23C32.4692 26.19 32.0252 25.19 32.5032 23.763C32.6778 23.2433 32.7991 22.7072 32.8652 22.163C33.2012 22.339 33.6502 22.483 34.2312 22.485C35.5512 22.485 36.1322 21.498 36.1582 21.457L36.4182 21.003L35.9362 20.805C34.3642 20.151 34.0162 18.395 33.9462 17.445C34.0892 17.472 34.2512 17.497 34.4342 17.502L34.5152 17.505V17.505Z" fill="#1A1919"/>
<path fill-rule="evenodd" clip-rule="evenodd" d="M32.5941 10.05C32.9121 10.05 33.2841 10.159 33.6341 10.522C34.7361 11.642 35.7611 11.705 35.7611 11.705C35.5751 12.118 35.0351 12.481 34.4761 12.481C34.3471 12.481 34.2161 12.461 34.0891 12.416C33.3301 12.16 33.0591 11.021 31.7281 10.312C31.7281 10.312 32.0981 10.05 32.5941 10.05V10.05ZM31.5111 10.716C32.1481 11.056 32.5201 11.513 32.8461 11.917C33.1661 12.312 33.4691 12.692 33.9461 12.85C34.1141 12.908 34.2931 12.936 34.4761 12.936C35.1891 12.936 35.9061 12.498 36.1781 11.892L36.4511 11.286L35.7901 11.246C35.7591 11.246 34.9081 11.167 33.9621 10.199C33.5721 9.80098 33.1011 9.59298 32.5941 9.59298C31.9741 9.59298 31.5141 9.90298 31.4641 9.93498L30.8561 10.364L31.5111 10.716V10.716ZM31.8101 16.767V16.79C31.4261 13.688 29.1781 11.448 26.6751 10.086C26.4451 9.96198 26.2301 9.85598 26.0231 9.75598C26.7841 9.87398 28.0111 9.88798 28.9591 9.06598C28.9591 9.06598 27.5091 10.133 24.5421 9.16298C25.3621 9.69698 26.9591 10.451 28.4171 11.671C32.0601 14.879 29.4541 18.007 29.4541 18.007C30.7641 16.638 30.8181 15.172 30.4321 13.974C31.1221 15.124 31.5621 16.519 31.4941 18.24C31.3941 20.705 30.0411 22.837 28.6181 24.55C27.9341 25.38 27.7821 26.402 27.7821 26.402C27.7821 26.402 28.0581 25.501 28.8491 24.574C30.3741 22.784 31.6791 20.927 31.8491 18.249C32.0071 18.736 32.6571 20.086 33.6871 20.595C33.6871 20.595 32.3921 19.813 31.8101 16.767V16.767ZM11.9901 28.503C8.19314 28.503 8.29014 25.242 8.29014 25.242C8.29014 25.242 8.02414 26.208 6.96714 26.459C6.83803 26.4915 6.70528 26.5073 6.57214 26.506C6.23214 26.506 5.93614 26.426 5.93614 26.426C5.93614 26.426 6.48914 25.254 5.93814 23.615C5.48414 22.255 5.55814 21.246 5.55814 21.246C5.55814 21.246 5.04714 22.021 3.77814 22.029H3.76514C2.71014 22.029 2.24914 21.226 2.24914 21.226C4.77914 20.173 4.53114 16.776 4.53114 16.776C4.53114 16.776 4.20114 17.022 3.56114 17.046H3.49414C2.09814 17.046 1.62514 15.55 1.62514 15.55H1.65414C1.91214 15.55 3.98314 15.49 5.44814 13.623C6.41314 12.396 7.20514 11.317 8.76414 10.893L8.92114 10.865L8.95414 10.708C8.99814 10.47 8.83414 10.245 8.46414 10.004C6.30914 8.58998 7.77214 6.78698 7.77214 6.78698C7.77214 6.78698 8.38414 8.22798 9.76514 8.22798L9.86514 8.22698C10.0211 8.21898 10.1741 8.21198 10.3251 8.17998L10.5791 8.13098C10.5791 8.13098 10.1851 7.06098 11.1351 6.07898C11.8491 5.33698 12.7161 5.21098 13.2171 5.21098C13.4721 5.21098 13.6291 5.24398 13.6291 5.24398C13.1551 5.86698 12.8111 6.90198 13.3591 7.53998C13.8351 8.08898 14.9941 8.11498 14.9941 8.93198C14.9941 9.27898 14.6711 9.68298 14.0921 10.046C12.3471 11.146 10.6161 12.606 9.89614 14.563C8.99814 17.003 10.0121 18.623 11.4591 19.553C11.4591 19.553 11.0041 19.971 10.3461 20.024C10.2172 20.0364 10.0877 20.0428 9.95814 20.043C8.57014 20.043 7.85214 19.391 7.85214 19.391C7.85214 19.391 7.97214 20.292 8.69014 21.13C9.36014 21.902 10.2351 22.357 11.5701 22.376C11.5701 22.376 11.6131 22.996 11.0221 23.534C10.6431 23.874 9.77014 23.984 9.77014 23.984C9.77014 23.984 11.4071 24.316 11.5871 26.736C11.6851 28.048 12.0171 28.503 12.0171 28.503H11.9901ZM12.3931 28.243C12.3921 28.238 12.1271 27.823 12.0421 26.703C11.9421 25.361 11.4361 24.577 10.9351 24.127C11.0801 24.059 11.2151 23.974 11.3271 23.872C12.0621 23.21 12.0311 22.432 12.0261 22.346L11.9981 21.926L11.5771 21.92C10.4551 21.902 9.67214 21.566 9.03714 20.828C8.90025 20.6682 8.77841 20.4961 8.67314 20.314C9.02314 20.421 9.45114 20.5 9.95814 20.5C10.0931 20.5 10.2351 20.492 10.3841 20.482C10.8945 20.431 11.3771 20.2251 11.7671 19.892L12.2041 19.489L11.7061 19.169C10.5901 18.454 9.44914 17.099 10.3261 14.722C10.8931 13.177 12.2041 11.778 14.3361 10.436C15.0561 9.98098 15.4501 9.44398 15.4501 8.93198C15.4501 8.14098 14.7901 7.82898 14.3061 7.60598C14.0701 7.49298 13.8241 7.38098 13.7051 7.24198C13.3301 6.80698 13.6451 5.97398 13.9941 5.52198L14.4401 4.93698L13.7171 4.79398C13.6971 4.79098 13.5071 4.75598 13.2171 4.75598C12.6781 4.75598 11.6471 4.88698 10.8071 5.75998C10.1061 6.48598 10.0141 7.25898 10.0501 7.75798C9.98091 7.76359 9.91156 7.76759 9.84214 7.76998H9.76514C8.70914 7.76998 8.21114 6.64998 8.19214 6.60698L7.89514 5.90698L7.41514 6.49698C7.38814 6.53298 6.68514 7.40898 6.85714 8.50798C6.97014 9.23798 7.42814 9.86798 8.21414 10.386C8.30014 10.441 8.35914 10.488 8.40214 10.527C6.91814 11.01 6.09114 12.069 5.21714 13.182L5.09114 13.34C3.75514 15.043 1.86414 15.094 1.63814 15.094L0.994141 15.074L1.19014 15.688C1.21314 15.762 1.78314 17.505 3.49414 17.505L3.57614 17.502C3.75714 17.497 3.92014 17.472 4.06414 17.444C3.99414 18.394 3.64414 20.151 2.07214 20.804L1.59214 21.004L1.85214 21.457C2.06051 21.7777 2.3469 22.0403 2.68447 22.2201C3.02203 22.3999 3.39972 22.491 3.78214 22.485C4.2553 22.4897 4.72259 22.3799 5.14414 22.165C5.19514 22.595 5.30114 23.146 5.50714 23.763C5.98514 25.189 5.54014 26.19 5.52314 26.23L5.28714 26.728L5.82014 26.869C5.85614 26.879 6.18414 26.961 6.57214 26.961C7.10599 26.9624 7.62261 26.7722 8.02814 26.425C8.19298 26.9481 8.47516 27.4266 8.85314 27.824C9.58714 28.579 10.6421 28.96 12.0201 28.96L12.8551 28.949L12.3931 28.243V28.243Z" fill="#1A1919"/>
<path fill-rule="evenodd" clip-rule="evenodd" d="M4.37355 10.522C4.72555 10.159 5.09655 10.049 5.41655 10.049C5.90855 10.049 6.28155 10.312 6.28155 10.312C4.95155 11.022 4.67755 12.16 3.91755 12.417C3.79377 12.4599 3.66354 12.4812 3.53255 12.48C2.97355 12.48 2.43255 12.118 2.24855 11.705C2.24855 11.705 3.27255 11.642 4.37355 10.522V10.522ZM3.53255 12.936C3.71555 12.936 3.89455 12.908 4.06455 12.85C4.54055 12.692 4.84455 12.313 5.16455 11.917C5.49155 11.514 5.85955 11.057 6.49755 10.717L7.15355 10.364L6.54355 9.93399C6.49355 9.90299 6.03655 9.59399 5.41655 9.59399C4.90855 9.59399 4.43655 9.80099 4.04755 10.199C3.10055 11.168 2.25155 11.246 2.22055 11.247L1.56055 11.286L1.83055 11.893C2.10455 12.498 2.82055 12.936 3.53255 12.936V12.936ZM6.51555 18.24C6.44555 16.519 6.88555 15.124 7.57555 13.974C7.19155 15.172 7.24355 16.638 8.55555 18.008C8.55555 18.008 5.94755 14.878 9.59255 11.672C11.0505 10.451 12.6455 9.69699 13.4655 9.16299C10.4995 10.133 9.05055 9.06499 9.05055 9.06499C9.99755 9.88799 11.2245 9.87499 11.9855 9.75499C11.7795 9.85599 11.5635 9.96099 11.3335 10.086C8.83055 11.447 6.58355 13.688 6.19755 16.79V16.767C5.61655 19.813 4.32255 20.595 4.32255 20.595C5.35255 20.085 6.00055 18.735 6.15855 18.249C6.33055 20.927 7.63455 22.785 9.15855 24.574C9.95055 25.501 10.2285 26.402 10.2285 26.402C10.2285 26.402 10.0745 25.381 9.38755 24.55C7.96755 22.837 6.61555 20.705 6.51555 18.24V18.24ZM18.1465 11.963V12.579C18.3585 12.32 18.7665 12.373 18.7665 12.373V13.26C18.7665 13.26 18.7535 13.696 18.5985 13.885H19.4845C19.3305 13.696 19.3155 13.26 19.3155 13.26V12.373C19.3155 12.373 19.7255 12.32 19.9355 12.579V11.963H18.1455H18.1465ZM17.7665 8.31499C18.0495 8.53999 18.2135 8.57799 18.2185 8.58099L18.3285 8.63199V8.05299L17.2885 7.61499C17.2885 7.61499 17.2975 7.95099 17.7665 8.31499V8.31499ZM20.2405 8.31499C20.7105 7.95099 20.7205 7.61499 20.7205 7.61499L19.6795 8.05299V8.63299L19.7895 8.58099C19.7945 8.57799 19.9575 8.53999 20.2405 8.31499Z" fill="#1A1919"/>
<path fill-rule="evenodd" clip-rule="evenodd" d="M19.0043 6.77201L16.4973 5.78001C16.7103 5.27401 17.6933 4.84401 19.0043 4.84301C20.3163 4.84401 21.2993 5.27401 21.5123 5.78001L19.0043 6.77201ZM20.8733 9.88101L19.1883 10.771V7.16701L21.4753 6.38901L20.8733 9.87901V9.88101ZM21.9173 10.837L22.6873 11.285H22.6983L22.8923 11.398C22.4573 11.518 22.1243 11.737 21.8453 12.023L21.8153 12.053C21.7495 12.1232 21.6864 12.1959 21.6263 12.271L21.5913 12.317C21.5313 12.394 21.4743 12.473 21.4213 12.555L21.3923 12.596C21.3274 12.695 21.2657 12.7961 21.2073 12.899C20.6573 13.846 19.7823 14.412 19.0043 14.414C18.2263 14.412 17.3503 13.846 16.8023 12.899C16.744 12.798 16.683 12.6986 16.6193 12.601L16.5833 12.548C16.531 12.4708 16.477 12.3948 16.4213 12.32C16.4073 12.3 16.3943 12.285 16.3803 12.268C16.3216 12.1951 16.2605 12.124 16.1973 12.055C16.1843 12.045 16.1753 12.032 16.1633 12.021C15.8776 11.7218 15.5155 11.5064 15.1163 11.398L15.3123 11.285H15.3203L16.0933 10.837L16.8843 10.382L19.0003 11.536L19.0043 11.532L19.0103 11.536L21.1253 10.382L21.9173 10.837ZM24.9573 14.041C24.7843 14.497 24.6413 14.991 24.6413 15.482L24.6433 18.652C23.9823 18.542 23.9033 17.828 23.9013 17.797L23.8893 17.652L23.7463 17.639C23.5038 17.6176 23.2772 17.5093 23.1083 17.334C22.7833 17.009 22.7833 16.483 22.7833 16.478C22.7793 16.505 22.4273 16.998 22.8353 17.538C23.0073 17.766 23.2573 17.907 23.5793 17.962C23.6553 18.357 23.9493 18.916 24.6433 19.002V20.552H22.6923C21.7923 20.051 22.1733 19.169 22.1913 19.131L22.2673 18.963L22.0953 18.898C21.1203 18.536 21.3893 17.562 21.4023 17.52L21.4423 17.378L21.3083 17.316C20.5043 16.942 20.6133 15.936 20.6243 15.894C20.3763 16.095 20.2873 16.504 20.4573 16.907C20.3653 17.013 20.2413 17.14 20.1063 17.28C19.8714 17.2287 19.6599 17.1015 19.5045 16.9181C19.349 16.7346 19.2583 16.5051 19.2463 16.265L19.2453 16.147L19.1353 16.105C18.8103 15.985 18.5873 15.803 18.4763 15.56C18.3858 15.3423 18.3697 15.1008 18.4303 14.873C18.6172 14.9118 18.8074 14.9319 18.9983 14.933H19.0113C19.1083 14.933 19.2033 14.927 19.2973 14.918C19.8173 14.866 20.3973 14.643 21.0033 14.041H24.9573V14.041ZM22.5193 27.856L22.7373 26.719L22.7723 26.509C22.9068 26.5617 23.0498 26.5898 23.1943 26.592C23.5263 26.592 23.7203 26.416 23.8493 26.267L24.0153 26.072L23.8793 25.858C23.8673 25.837 23.5643 25.358 23.3323 25.03C23.2862 24.9652 23.2418 24.8992 23.1993 24.832C22.9343 24.436 22.6033 23.939 21.9393 23.939L21.8803 23.941C21.7847 23.9462 21.6903 23.9654 21.6003 23.998C21.3982 23.9014 21.1772 23.8509 20.9533 23.85C20.728 23.8554 20.5052 23.8987 20.2943 23.978C20.2503 23.991 20.2103 24.005 20.1793 24.011L18.9393 23.889C18.8888 23.8643 18.845 23.828 18.8113 23.783V23.776L19.0793 23.669C19.0043 22.773 18.1453 22.222 17.6673 22.035C17.6461 21.9392 17.5974 21.8516 17.5273 21.783L17.2613 21.53L17.0273 21.811L16.9123 21.955L15.1743 21.24L16.3043 22.661L15.8593 23.338C15.6953 23.511 15.8763 23.686 15.8763 23.686L16.3363 24.004L16.8143 23.825C16.8303 23.825 16.8443 23.829 16.8613 23.831C16.8383 23.904 16.8083 24.189 16.7883 24.268L15.9593 24.105L15.0893 24.598C14.6403 24.928 14.5793 25.472 14.7463 25.845L14.8423 26.057L14.9793 26.356L15.2843 26.23C15.2893 26.228 15.2933 26.227 15.2963 26.224C15.1863 26.575 15.2313 26.908 15.4263 27.127L15.6113 27.36L15.8573 27.672L16.1273 27.381C16.2073 27.301 16.4653 27.012 16.5443 26.764L16.6023 26.575L16.4713 26.43L16.4493 26.403L16.5973 26.158L17.6793 26.414L17.9233 26.47L18.0533 26.255L18.1233 26.139C18.1363 26.114 18.1393 26.11 18.1893 26.11C18.2283 26.11 18.2663 26.114 18.3073 26.124C18.6763 26.1968 19.0512 26.2353 19.4273 26.239C19.7503 26.239 19.9453 26.227 20.1753 26.15C20.1753 26.15 20.7563 26.81 20.7763 26.836L20.4203 27.936L20.4043 28.002C19.7313 28.057 19.4033 28.205 19.0063 28.602C18.4303 28.03 18.0233 27.969 16.4763 27.969C14.6233 27.969 13.3673 26.882 13.3673 25.143V20.895H24.6433L24.6453 25.143C24.6453 26.552 23.8193 27.535 22.5193 27.856V27.856ZM15.5743 25.454L15.6333 25.601C15.5933 25.729 15.1533 25.911 15.1533 25.911L15.0593 25.702C14.9992 25.5588 14.989 25.3996 15.0301 25.2498C15.0713 25.1001 15.1615 24.9684 15.2863 24.876L15.9993 24.441L16.7563 24.601C16.7506 24.7519 16.7961 24.9002 16.8853 25.022L16.0933 24.87L15.6183 25.198C15.5383 25.254 15.5323 25.358 15.5743 25.454V25.454ZM22.3993 26.654L22.1563 27.925C22.0003 27.947 21.8363 27.959 21.6683 27.965L21.9243 26.745C22.0003 26.381 21.0283 26.268 20.5473 25.555C20.3123 25.819 19.8713 25.898 19.4273 25.898C19.0213 25.898 18.6173 25.833 18.3703 25.784C18.3108 25.7737 18.2506 25.768 18.1903 25.767C18.0473 25.767 17.9183 25.811 17.8283 25.962L17.7583 26.082L16.4323 25.769L16.1023 26.316C16.0563 26.405 16.0523 26.479 16.1273 26.562L16.2173 26.66C16.1553 26.853 15.8793 27.146 15.8793 27.146L15.6823 26.899C15.5263 26.725 15.5523 26.405 15.7143 26.109L16.2403 25.219L17.3633 25.382L17.1893 24.983C16.9543 24.456 17.3123 23.786 17.3503 23.4C17.3373 23.517 17.2303 23.543 17.1063 23.543C16.9923 23.543 16.8663 23.522 16.7823 23.522C16.7493 23.522 16.7203 23.525 16.7053 23.536L16.4013 23.721L16.1613 23.509C16.1323 23.469 16.1233 23.372 16.1933 23.3L16.7493 22.676L16.0933 21.908L17.0113 22.371L17.2923 22.03C17.3693 22.106 17.3353 22.303 17.3353 22.303C17.6223 22.311 18.4273 22.756 18.4693 23.796C18.4723 23.828 18.4723 23.863 18.4723 23.898L18.4933 23.932C18.5503 24.011 18.7073 24.212 18.9063 24.23L20.1763 24.356H20.1813C20.3213 24.356 20.5983 24.192 20.9533 24.192C21.1483 24.192 21.3633 24.242 21.5933 24.387C21.5933 24.387 21.7093 24.295 21.8963 24.285C21.9103 24.283 21.9263 24.283 21.9393 24.283C22.5093 24.283 22.7463 24.799 23.0523 25.228C23.2823 25.554 23.5893 26.038 23.5893 26.038C23.4763 26.173 23.3703 26.248 23.1933 26.248C23.1382 26.2482 23.0833 26.2429 23.0293 26.232C22.4193 26.119 22.3303 24.862 21.9823 24.762C21.964 24.7572 21.9452 24.7548 21.9263 24.755C21.8143 24.755 21.7653 24.855 21.7653 24.855C21.9253 25.284 21.8313 25.457 22.0033 25.788C22.1313 26.033 22.3583 26.234 22.4523 26.33C22.4523 26.33 22.4273 26.516 22.3993 26.655V26.654ZM21.2303 27.974C21.0603 27.974 20.9023 27.976 20.7603 27.982L21.1323 26.821C21.1903 26.66 20.8963 26.453 20.7753 26.271C20.9583 26.387 21.4333 26.641 21.6623 26.741C21.5139 27.1505 21.3699 27.5615 21.2303 27.974V27.974ZM15.6983 17.512L15.7513 15.494L16.2033 15.015L16.4873 15.611L15.9273 17.548L15.6973 17.513L15.6983 17.512ZM16.0233 18.138C16.0919 18.2695 16.1958 18.3792 16.3233 18.455C16.3198 18.6468 16.3014 18.8381 16.2683 19.027C16.2583 19.071 16.2483 19.112 16.2353 19.153C16.2293 19.179 16.2213 19.2 16.2163 19.217C16.0773 19.217 15.8063 19.2 15.5853 19.119C15.3393 19.029 14.9723 18.577 15.0573 18.079C15.1633 18.014 15.4093 17.875 15.6403 17.875C15.8173 17.875 15.9383 17.959 16.0233 18.138V18.138ZM21.2593 18.68C20.9123 18.937 20.0163 19.592 19.6913 19.82L16.5633 19.256L16.5853 19.173C16.6253 19.01 16.6683 18.788 16.6703 18.527L19.2993 18.569L19.3493 18.519C19.3893 18.479 20.2223 17.672 20.6463 17.209C20.7473 17.336 20.8733 17.456 21.0393 17.562C20.9833 17.872 21.0063 18.31 21.2593 18.68V18.68ZM17.0063 14.041C17.3833 14.415 17.7503 14.648 18.1003 14.776C18.0553 14.956 17.9953 15.33 18.1633 15.701C18.3013 16.001 18.5513 16.231 18.9123 16.385C18.9523 16.755 19.1853 17.312 19.8323 17.558C19.5483 17.844 19.2723 18.114 19.1623 18.222L16.5383 18.181C16.4516 18.1396 16.3797 18.0726 16.3323 17.989C16.3273 17.976 16.3183 17.969 16.3123 17.955L16.7413 18.025L16.7683 18.026C16.8086 18.0263 16.8477 18.0121 16.8785 17.9861C16.9094 17.96 16.9298 17.9238 16.9363 17.884C16.9435 17.8392 16.9328 17.7934 16.9063 17.7565C16.8799 17.7196 16.84 17.6946 16.7953 17.687L16.2683 17.603L16.8523 15.582L16.2993 14.415L15.4123 15.355L15.3583 17.456L14.7623 17.361C14.6703 17.343 14.5823 17.411 14.5653 17.504C14.5586 17.549 14.5699 17.5949 14.5966 17.6317C14.6233 17.6685 14.6634 17.6934 14.7083 17.701L14.9583 17.739C14.9048 17.769 14.8528 17.8013 14.8023 17.836L14.7523 17.872L14.7383 17.934C14.5933 18.524 14.9213 19.084 15.2753 19.334L15.2623 19.409C15.2483 19.499 15.2683 19.589 15.3223 19.662C15.353 19.7064 15.3942 19.7425 15.4421 19.7673C15.49 19.792 15.5433 19.8046 15.5973 19.804C15.6731 19.8034 15.7464 19.7772 15.8054 19.7296C15.8644 19.682 15.9056 19.6159 15.9223 19.542C16.0543 19.557 16.1753 19.561 16.2573 19.561H16.3283L19.7693 20.184L19.8283 20.145C20.1023 19.953 21.1483 19.19 21.4903 18.937C21.5853 19.018 21.6903 19.092 21.8173 19.153C21.7063 19.526 21.6993 20.099 22.1373 20.553H13.3673V15.483C13.3673 14.991 13.2243 14.497 13.0543 14.041H17.0063V14.041ZM16.5323 6.39101L18.8213 7.16801V10.77L17.1363 9.88001L16.5323 6.39001V6.39101ZM22.1163 5.95601C22.1163 5.07701 20.6393 4.28601 19.0093 4.28601H18.9993C17.3693 4.28601 15.8933 5.07701 15.8933 5.95601L15.9253 6.17201L16.5763 9.91501L15.9223 10.295L14.2313 11.285H14.2373C14.2373 11.285 13.8573 11.481 13.6803 11.601C13.0363 12.049 12.8993 12.703 13.2733 12.973C13.3653 12.44 13.7863 11.883 14.5733 11.883C15.1413 11.883 15.5733 12.177 15.9233 12.616C16.0133 12.727 16.0983 12.846 16.1773 12.973C16.2753 13.134 16.3743 13.276 16.4713 13.412H12.1133C12.4333 14.057 12.7383 14.74 12.7383 15.482V25.144C12.7383 27.482 14.5333 28.598 16.4753 28.598C17.9763 28.598 18.1783 28.53 19.0063 29.356C19.8303 28.53 20.0333 28.598 21.5353 28.598C23.4783 28.598 25.2703 27.482 25.2703 25.144V15.482C25.2703 14.74 25.5753 14.057 25.8973 13.412H21.5373C21.6353 13.276 21.7333 13.134 21.8313 12.973C21.9113 12.846 21.9963 12.727 22.0843 12.616C22.4363 12.175 22.8683 11.883 23.4363 11.883C24.2233 11.883 24.6433 12.44 24.7363 12.973C25.1103 12.703 24.9753 12.049 24.3263 11.601C24.1467 11.4869 23.9619 11.3815 23.7723 11.285H23.7793L22.0843 10.295L21.4343 9.91501L22.0843 6.17201L22.1163 5.95601V5.95601Z" fill="#1A1919"/>
<path d="M50.12 22.06H53.12V15.08H57.24V12.54H46V15.08H50.12V22.06ZM66.34 12.54L61.34 18.08V12.54H58.44V22.06H61L66 16.52V22.06H68.9V12.54H66.34ZM73.997 18.52H78.657V22.06H81.557V12.54H78.657V16.02H73.997V12.54H71.097V22.06H73.997V18.52ZM89.633 22.06C90.293 22.06 90.893 22 91.453 21.84C92.953 21.42 93.933 20.2 93.933 18.54C93.933 16.96 93.093 15.86 91.753 15.36C91.113 15.12 90.353 15.1 89.633 15.1H86.653V12.54H83.753V22.06H89.633V22.06ZM86.653 17.34H89.133C89.533 17.34 89.913 17.34 90.253 17.46C90.733 17.62 91.013 18.02 91.013 18.5C91.013 19 90.733 19.42 90.273 19.62C89.953 19.76 89.633 19.76 89.133 19.76H86.653V17.34V17.34ZM98.333 18.46H99.133L102.593 22.06H106.453L101.633 17.1L106.273 12.54H102.633L99.133 16.12H98.333V12.54H95.433V22.06H98.333V18.46V18.46Z" fill="white"/>
<path d="M112.42 12.28C108.52 12.28 106.18 14.48 106.18 17.32C106.18 20.16 108.52 22.36 112.42 22.36C116.3 22.36 118.64 20.16 118.64 17.32C118.64 14.48 116.3 12.28 112.42 12.28V12.28ZM112.42 20.04C110.48 20.04 109.24 18.88 109.24 17.32C109.24 15.76 110.48 14.62 112.42 14.62C114.34 14.62 115.6 15.76 115.6 17.32C115.6 18.88 114.34 20.04 112.42 20.04ZM128.298 12.96V12H125.398V12.96C121.758 13.04 119.578 14.58 119.578 17.3C119.578 20.02 121.758 21.44 125.398 21.52V22.48H128.298V21.52C131.958 21.44 134.138 20.02 134.138 17.3C134.138 14.58 131.958 13.04 128.298 12.96V12.96ZM125.398 19.48C123.398 19.4 122.518 18.58 122.518 17.3C122.518 16.02 123.398 15.1 125.398 15.02V19.48ZM128.298 19.48V15.02C130.318 15.1 131.178 16.02 131.178 17.3C131.178 18.58 130.318 19.4 128.298 19.48ZM143.786 12.96V12H140.886V12.96C137.246 13.04 135.066 14.58 135.066 17.3C135.066 20.02 137.246 21.44 140.886 21.52V22.48H143.786V21.52C147.446 21.44 149.626 20.02 149.626 17.3C149.626 14.58 147.446 13.04 143.786 12.96V12.96ZM140.886 19.48C138.886 19.4 138.006 18.58 138.006 17.3C138.006 16.02 138.886 15.1 140.886 15.02V19.48ZM143.786 19.48V15.02C145.806 15.1 146.666 16.02 146.666 17.3C146.666 18.58 145.806 19.4 143.786 19.48Z" fill="white"/>
</g>
<defs>
<clipPath id="clip0_711_2">
<rect width="150" height="34" fill="white"/>
</clipPath>
</defs>
</svg>
