<svg width="64" height="32" viewBox="0 0 64 32" fill="none" xmlns="http://www.w3.org/2000/svg">
<path d="M16.271 11.557C16.099 11.677 16 11.87 16 12.078V12.083C16 12.172 16.021 12.255 16.052 12.338L19.12 19.276C19.255 19.583 19.604 19.734 19.922 19.625C21.927 18.906 28.87 16.646 33.365 17.865C33.365 17.865 28.855 18.125 24.782 21.323C24.553 21.505 24.475 21.818 24.589 22.083L28.5 22.312L26.49 26.421C26.615 26.718 27.016 26.754 27.193 26.484C28.146 25.052 29.75 24.338 31.292 23.713C32.87 23.067 34.516 22.598 36.198 22.312C37.99 22.01 39.813 21.932 41.625 22.088C41.922 22.119 42.203 21.932 42.292 21.645L43.677 17.218C43.76 16.958 43.667 16.676 43.443 16.515C41.901 15.395 35.787 11.64 25.042 13.15C25.042 13.15 34.209 7.87901 45.855 13.671C46.209 13.843 42.177 9.76001 42.292 9.38501H47.97C45.855 10.5 48.001 9.26501 48.001 9.20301V9.18201C47.996 8.95801 47.876 8.75001 47.678 8.63501C46.214 7.81201 41.267 5.33301 34.464 5.33301C29.245 5.33301 22.938 6.78601 16.271 11.557Z" fill="#E3E3E3"/>
<path d="M4.86 18L2.898 14.967L4.077 14.256L6.516 18H4.86ZM0.764999 18V11.7H2.214V18H0.764999ZM1.791 15.462V14.247H3.987V15.462H1.791ZM4.212 15.012L2.871 14.85L4.914 11.7H6.453L4.212 15.012ZM6.35618 18L9.16418 11.7H10.6042L13.4212 18H11.8912L9.58718 12.438H10.1632L7.85018 18H6.35618ZM7.76018 16.65L8.14718 15.543H11.3872L11.7832 16.65H7.76018ZM14.2566 18V11.7H16.9836C17.5476 11.7 18.0336 11.793 18.4416 11.979C18.8496 12.159 19.1646 12.42 19.3866 12.762C19.6086 13.104 19.7196 13.512 19.7196 13.986C19.7196 14.454 19.6086 14.859 19.3866 15.201C19.1646 15.543 18.8496 15.807 18.4416 15.993C18.0336 16.173 17.5476 16.263 16.9836 16.263H15.0666L15.7146 15.606V18H14.2566ZM15.7146 15.768L15.0666 15.075H16.9026C17.3526 15.075 17.6886 14.979 17.9106 14.787C18.1326 14.595 18.2436 14.328 18.2436 13.986C18.2436 13.638 18.1326 13.368 17.9106 13.176C17.6886 12.984 17.3526 12.888 16.9026 12.888H15.0666L15.7146 12.195V15.768Z" fill="#494949"/>
<path d="M20.7693 18V11.7H21.9753L24.6573 16.146H24.0183L26.6553 11.7H27.8613L27.8703 18H26.5023L26.4933 13.797H26.7543L24.6393 17.334H23.9913L21.8313 13.797H22.1373V18H20.7693ZM32.4503 18.108C31.9523 18.108 31.4903 18.027 31.0643 17.865C30.6443 17.703 30.2783 17.475 29.9663 17.181C29.6603 16.887 29.4203 16.542 29.2463 16.146C29.0783 15.75 28.9943 15.318 28.9943 14.85C28.9943 14.382 29.0783 13.95 29.2463 13.554C29.4203 13.158 29.6633 12.813 29.9753 12.519C30.2873 12.225 30.6533 11.997 31.0733 11.835C31.4933 11.673 31.9493 11.592 32.4413 11.592C32.9393 11.592 33.3953 11.673 33.8093 11.835C34.2293 11.997 34.5923 12.225 34.8983 12.519C35.2103 12.813 35.4533 13.158 35.6273 13.554C35.8013 13.944 35.8883 14.376 35.8883 14.85C35.8883 15.318 35.8013 15.753 35.6273 16.155C35.4533 16.551 35.2103 16.896 34.8983 17.19C34.5923 17.478 34.2293 17.703 33.8093 17.865C33.3953 18.027 32.9423 18.108 32.4503 18.108ZM32.4413 16.866C32.7233 16.866 32.9813 16.818 33.2153 16.722C33.4553 16.626 33.6653 16.488 33.8453 16.308C34.0253 16.128 34.1633 15.915 34.2593 15.669C34.3613 15.423 34.4123 15.15 34.4123 14.85C34.4123 14.55 34.3613 14.277 34.2593 14.031C34.1633 13.785 34.0253 13.572 33.8453 13.392C33.6713 13.212 33.4643 13.074 33.2243 12.978C32.9843 12.882 32.7233 12.834 32.4413 12.834C32.1593 12.834 31.8983 12.882 31.6583 12.978C31.4243 13.074 31.2173 13.212 31.0373 13.392C30.8573 13.572 30.7163 13.785 30.6143 14.031C30.5183 14.277 30.4703 14.55 30.4703 14.85C30.4703 15.144 30.5183 15.417 30.6143 15.669C30.7163 15.915 30.8543 16.128 31.0283 16.308C31.2083 16.488 31.4183 16.626 31.6583 16.722C31.8983 16.818 32.1593 16.866 32.4413 16.866ZM38.2826 18V12.555L38.6156 12.888H36.2756V11.7H41.7386V12.888H39.3986L39.7226 12.555V18H38.2826ZM45.5812 18.108C45.0832 18.108 44.6212 18.027 44.1952 17.865C43.7752 17.703 43.4092 17.475 43.0972 17.181C42.7912 16.887 42.5512 16.542 42.3772 16.146C42.2092 15.75 42.1252 15.318 42.1252 14.85C42.1252 14.382 42.2092 13.95 42.3772 13.554C42.5512 13.158 42.7942 12.813 43.1062 12.519C43.4182 12.225 43.7842 11.997 44.2042 11.835C44.6242 11.673 45.0802 11.592 45.5722 11.592C46.0702 11.592 46.5262 11.673 46.9402 11.835C47.3602 11.997 47.7232 12.225 48.0292 12.519C48.3412 12.813 48.5842 13.158 48.7582 13.554C48.9322 13.944 49.0192 14.376 49.0192 14.85C49.0192 15.318 48.9322 15.753 48.7582 16.155C48.5842 16.551 48.3412 16.896 48.0292 17.19C47.7232 17.478 47.3602 17.703 46.9402 17.865C46.5262 18.027 46.0732 18.108 45.5812 18.108ZM45.5722 16.866C45.8542 16.866 46.1122 16.818 46.3462 16.722C46.5862 16.626 46.7962 16.488 46.9762 16.308C47.1562 16.128 47.2942 15.915 47.3902 15.669C47.4922 15.423 47.5432 15.15 47.5432 14.85C47.5432 14.55 47.4922 14.277 47.3902 14.031C47.2942 13.785 47.1562 13.572 46.9762 13.392C46.8022 13.212 46.5952 13.074 46.3552 12.978C46.1152 12.882 45.8542 12.834 45.5722 12.834C45.2902 12.834 45.0292 12.882 44.7892 12.978C44.5552 13.074 44.3482 13.212 44.1682 13.392C43.9882 13.572 43.8472 13.785 43.7452 14.031C43.6492 14.277 43.6012 14.55 43.6012 14.85C43.6012 15.144 43.6492 15.417 43.7452 15.669C43.8472 15.915 43.9852 16.128 44.1592 16.308C44.3392 16.488 44.5492 16.626 44.7892 16.722C45.0292 16.818 45.2902 16.866 45.5722 16.866ZM50.1424 18V11.7H52.8694C53.4334 11.7 53.9194 11.793 54.3274 11.979C54.7354 12.159 55.0504 12.42 55.2724 12.762C55.4944 13.104 55.6054 13.512 55.6054 13.986C55.6054 14.454 55.4944 14.859 55.2724 15.201C55.0504 15.543 54.7354 15.807 54.3274 15.993C53.9194 16.173 53.4334 16.263 52.8694 16.263H50.9524L51.6004 15.606V18H50.1424ZM51.6004 15.768L50.9524 15.075H52.7884C53.2384 15.075 53.5744 14.979 53.7964 14.787C54.0184 14.595 54.1294 14.328 54.1294 13.986C54.1294 13.638 54.0184 13.368 53.7964 13.176C53.5744 12.984 53.2384 12.888 52.7884 12.888H50.9524L51.6004 12.195V15.768ZM59.6341 18.108C59.1481 18.108 58.6951 18.03 58.2751 17.874C57.8611 17.712 57.5011 17.484 57.1951 17.19C56.8891 16.896 56.6491 16.551 56.4751 16.155C56.3071 15.759 56.2231 15.324 56.2231 14.85C56.2231 14.376 56.3071 13.941 56.4751 13.545C56.6491 13.149 56.8891 12.804 57.1951 12.51C57.5071 12.216 57.8701 11.991 58.2841 11.835C58.6981 11.673 59.1511 11.592 59.6431 11.592C60.1891 11.592 60.6811 11.688 61.1191 11.88C61.5631 12.066 61.9351 12.342 62.2351 12.708L61.2991 13.572C61.0831 13.326 60.8431 13.143 60.5791 13.023C60.3151 12.897 60.0271 12.834 59.7151 12.834C59.4211 12.834 59.1511 12.882 58.9051 12.978C58.6591 13.074 58.4461 13.212 58.2661 13.392C58.0861 13.572 57.9451 13.785 57.8431 14.031C57.7471 14.277 57.6991 14.55 57.6991 14.85C57.6991 15.15 57.7471 15.423 57.8431 15.669C57.9451 15.915 58.0861 16.128 58.2661 16.308C58.4461 16.488 58.6591 16.626 58.9051 16.722C59.1511 16.818 59.4211 16.866 59.7151 16.866C60.0271 16.866 60.3151 16.806 60.5791 16.686C60.8431 16.56 61.0831 16.371 61.2991 16.119L62.2351 16.983C61.9351 17.349 61.5631 17.628 61.1191 17.82C60.6811 18.012 60.1861 18.108 59.6341 18.108Z" fill="#494949"/>
</svg>
