<svg width="177" height="56" viewBox="0 0 177 56" fill="none" xmlns="http://www.w3.org/2000/svg">
<g clip-path="url(#clip0_503_2)">
<path d="M0 0V56H60V0H0ZM43.6 40.8H37.6V34.5L38.2 22.8H38.1L32 40.8H28L21.9 22.9H21.8L22.4 34.4V40.8H16.4V15.2H24.2L29.9 33.1H30L35.8 15.2H43.6V40.8Z" fill="#F24943"/>
<path d="M81.7001 20.7999L84.3001 28.7H84.4001L86.8001 20.7999H92.5001V35.5H88.5001V24.7L85.7001 35.4H82.3001L79.5001 24.7V35.4H76.1001V20.7999H81.7001ZM110 20.7999L115.1 35.5H110.3L109.5 32.7H105.5L104.7 35.5H101L105.5 20.7999H110ZM108.9 29.2L107.8 24.5L106.6 29.2H108.9ZM130.9 20.7999V29.7999C130.9 30.9999 130.8 31.7999 130.7 32.2999C130.6 32.8999 130.4 33.3999 130 33.7999C129.6 34.2999 129.1 34.7 128.4 34.9C127.7 35.2 126.7 35.2999 125.7 35.2999C125.4 35.2999 125.2 35.3 124.9 35.2C124.5 35.2 124.2 35.0999 124 35.0999L123 35V31.6C123.3 31.7 123.6 31.6999 123.9 31.7999C124.2 31.8999 124.5 31.9 124.7 31.9C125 31.9 125.3 31.8 125.5 31.7C125.7 31.6 125.9 31.5 126.1 31.2C126.2 31 126.3 30.8 126.3 30.5C126.4 30.3 126.4 30.2 126.4 29.7V20.7H130.9V20.7999ZM147 20.7999C148 20.7999 148.9 20.9999 149.7 21.2999C150.5 21.5999 151.2 22 151.8 22.5C152.5 23.1 153 23.9 153.4 24.9C153.8 25.9 154 27 154 28.2C154 29.3 153.8 30.2999 153.5 31.2999C153.2 32.2999 152.7 33.1 152.1 33.7C151.5 34.3 150.7 34.7999 149.9 35.0999C149.1 35.3999 148 35.5999 147 35.5999C146 35.5999 145.1 35.5 144.3 35.2C143.5 34.9 142.8 34.5 142.2 33.9C141.4 33.2 140.8 32.4 140.5 31.5C140.1 30.5 139.9 29.4999 139.9 28.2999C139.9 26.9999 140.1 25.8 140.6 24.9C141.1 23.9 141.7 23.1 142.5 22.5C143.1 22 143.7 21.7 144.5 21.4C145.2 20.9 146.1 20.7999 147 20.7999ZM147 23.9C146.6 23.9 146.3 24 146 24.2C145.7 24.4 145.5 24.7 145.3 25C145.1 25.3 145 25.7 145 26.2C144.9 26.7 144.9 27.3 144.9 28C144.9 28.7 145 29.2999 145 29.7999C145.1 30.2999 145.2 30.7 145.3 31C145.5 31.4 145.8 31.7 146 31.9C146.3 32.1 146.6 32.2 147 32.2C147.4 32.2 147.7 32.1 148 31.9C148.3 31.7 148.5 31.4 148.7 31C148.9 30.7 149 30.2999 149.1 29.7999C149.2 29.2999 149.2 28.7 149.2 28C149.2 27.3 149.1 26.7 149.1 26.2C149 25.7 148.9 25.3 148.7 25C148.5 24.6 148.3 24.3 148 24.2C147.8 24 147.4 23.9 147 23.9ZM163.1 20.7999H170.3C171.3 20.7999 172.1 20.9 172.8 21.1C173.5 21.3 174.1 21.7 174.6 22.2C174.9 22.5 175.2 23 175.4 23.5C175.6 24 175.7 24.6 175.7 25.2C175.7 26.2 175.5 27.1 175 27.7C174.5 28.4 173.9 28.9 173.2 29.2L176 35.4H171L169.3 29.7H167.6V35.4H163.1V20.7999ZM167.7 24.2V27H169.4C169.7 27 169.9 26.9 170.1 26.9L170.7 26.6C170.8 26.5 170.9 26.3 171 26.1C171.1 25.9 171.1 25.8 171.1 25.5C171.1 25.2 171 25.1 171 24.9C170.9 24.7 170.8 24.6 170.7 24.4C170.5 24.2 170.4 24.2 170.1 24.1C169.8 24 169.6 24 169.3 24H167.7V24.2Z" fill="#F24943"/>
</g>
<defs>
<clipPath id="clip0_503_2">
<rect width="176.3" height="56" fill="white"/>
</clipPath>
</defs>
</svg>
