<svg xmlns="http://www.w3.org/2000/svg" viewBox="0 0 64 64"><path d="M56.53 64H7.47c-1.07 0-1.94-.87-1.94-1.94V1.94C5.53.87 6.4 0 7.47 0h49.06c1.07 0 1.94.87 1.94 1.94v60.12c0 1.07-.87 1.94-1.94 1.94zM7.47 1.94v60.12h49.06V1.94H7.47z"/><path d="M14.71 14.96a.966.966 0 0 1-.69-1.65l4.78-4.78c.38-.38.99-.38 1.37 0 .38.38.38.99 0 1.37l-4.78 4.78a.97.97 0 0 1-.68.28z"/><path d="M19.49 14.96c-.25 0-.5-.09-.69-.28L14.02 9.9a.966.966 0 0 1 0-1.37c.38-.38.99-.38 1.37 0l4.78 4.78a.966.966 0 0 1-.68 1.65zM15.9 25.32c-.25 0-.5-.09-.69-.28l-2.38-2.38a.966.966 0 0 1 0-1.37c.38-.38.99-.38 1.37 0l1.69 1.69 4.1-4.1c.38-.38.99-.38 1.37 0 .38.38.38.99 0 1.37l-4.78 4.78c-.18.19-.43.29-.68.29zm1.2 10.41c-1.88 0-3.41-1.53-3.41-3.41s1.53-3.41 3.41-3.41 3.41 1.53 3.41 3.41-1.53 3.41-3.41 3.41zm0-4.88c-.81 0-1.47.66-1.47 1.47 0 .81.66 1.47 1.47 1.47s1.47-.66 1.47-1.47c0-.81-.66-1.47-1.47-1.47zm2.44 15.23h-4.88c-.54 0-.97-.43-.97-.97v-4.88c0-.54.43-.97.97-.97h4.88c.54 0 .97.43.97.97v4.88c0 .54-.43.97-.97.97zm-3.9-1.94h2.94V41.2h-2.94v2.94zM50.48 12.57H26.91c-.54 0-.97-.43-.97-.97s.43-.97.97-.97h23.56c.54 0 .97.43.97.97.01.54-.43.97-.96.97zM50.48 22.93H26.91c-.54 0-.97-.43-.97-.97s.43-.97.97-.97h23.56c.54 0 .97.43.97.97.01.53-.43.97-.96.97zM50.48 33.29H26.91c-.54 0-.97-.43-.97-.97s.43-.97.97-.97h23.56c.54 0 .97.43.97.97s-.43.97-.96.97zM50.48 43.65H26.91c-.54 0-.97-.43-.97-.97s.43-.97.97-.97h23.56c.54 0 .97.43.97.97s-.43.97-.96.97zM17.45 58.84c-.15 0-.31-.04-.45-.11l-1.7-.89-1.7.89c-.33.17-.72.14-1.02-.07a.975.975 0 0 1-.39-.95l.32-1.89-1.37-1.34a.984.984 0 0 1-.25-.99c.11-.35.42-.61.78-.66l1.9-.28.85-1.72c.16-.33.5-.54.87-.54s.71.21.87.54l.85 1.72 1.9.28c.37.05.67.31.78.66.11.35.02.74-.25.99l-1.37 1.34.32 1.89c.06.36-.09.73-.39.95-.15.12-.35.18-.55.18zm-3.54-4.38.33.32c.23.22.33.54.28.86l-.08.46.41-.22c.28-.15.62-.15.9 0l.41.22-.08-.46c-.05-.31.05-.64.28-.86l.33-.32-.46-.07a.96.96 0 0 1-.73-.53l-.2-.41-.21.41a.96.96 0 0 1-.73.53l-.45.07zm10.37 4.38c-.2 0-.4-.06-.57-.19a.975.975 0 0 1-.39-.95l.32-1.89-1.37-1.34a.984.984 0 0 1-.25-.99c.11-.35.42-.61.78-.66l1.9-.28.85-1.72c.33-.66 1.41-.66 1.74 0l.85 1.72 1.9.28c.37.05.67.31.78.66.11.35.02.74-.25.99l-1.37 1.34.32 1.89c.06.36-.09.73-.39.95-.3.22-.69.25-1.02.07l-1.7-.89-1.7.89c-.12.08-.27.12-.43.12zm2.15-3.07c.15 0 .31.04.45.11l.41.22-.08-.46c-.05-.31.05-.64.28-.86l.33-.32-.46-.07a.96.96 0 0 1-.73-.53l-.21-.41-.2.41a.96.96 0 0 1-.73.53l-.46.07.33.32c.23.22.33.54.28.86l-.08.46.41-.22c.15-.07.31-.11.46-.11zm8.99 3.07c-.2 0-.4-.06-.57-.19a.975.975 0 0 1-.39-.95l.32-1.89-1.37-1.34a.984.984 0 0 1-.25-.99c.11-.35.42-.61.78-.66l1.9-.28.85-1.72c.33-.66 1.41-.66 1.74 0l.85 1.72 1.9.28c.37.05.67.31.78.66.11.35.02.74-.25.99l-1.37 1.34.32 1.89c.06.36-.09.73-.39.95-.3.22-.69.25-1.02.07l-1.7-.89-1.7.89c-.12.08-.28.12-.43.12zm2.15-3.07c.15 0 .31.04.45.11l.41.22-.08-.46c-.05-.31.05-.64.28-.86l.33-.32-.46-.06a.96.96 0 0 1-.73-.53l-.21-.41-.2.41a.96.96 0 0 1-.73.53l-.46.07.33.32c.23.22.33.54.28.86l-.08.46.41-.22c.15-.08.3-.12.46-.12zm13.28 3.07c-.15 0-.31-.04-.45-.11l-1.7-.89-1.7.89c-.33.17-.72.14-1.02-.07a.975.975 0 0 1-.39-.95l.32-1.89-1.37-1.34a.984.984 0 0 1-.25-.99c.11-.35.42-.61.78-.66l1.9-.28.85-1.72c.33-.66 1.41-.66 1.74 0l.85 1.72 1.9.28c.37.05.67.31.78.66.11.35.02.74-.25.99l-1.37 1.34.32 1.89c.06.36-.09.73-.39.95-.15.12-.35.18-.55.18zm-2.15-3.07c.15 0 .31.04.45.11l.41.22-.08-.46c-.05-.31.05-.64.28-.86l.33-.32-.46-.07a.96.96 0 0 1-.73-.53l-.21-.41-.2.41a.96.96 0 0 1-.73.53l-.46.07.33.32c.23.22.33.54.28.86l-.08.46.41-.22c.15-.07.31-.11.46-.11z"/></svg>